<svg width="42" height="41" viewBox="0 0 42 41" fill="none" xmlns="http://www.w3.org/2000/svg">
<g clip-path="url(#clip0_488_13649)">
<path fill-rule="evenodd" clip-rule="evenodd" d="M11.7692 37.9154C11.8457 37.9154 11.9076 37.8534 11.9076 37.7769C11.9076 37.7004 11.8457 37.6385 11.7692 37.6385C11.6927 37.6385 11.6307 37.7004 11.6307 37.7769C11.6307 37.8534 11.6927 37.9154 11.7692 37.9154ZM9.04611 37.7769C9.04611 36.273 10.2653 35.0538 11.7692 35.0538C13.2731 35.0538 14.4923 36.273 14.4923 37.7769C14.4923 39.2808 13.2731 40.5 11.7692 40.5C10.2653 40.5 9.04611 39.2808 9.04611 37.7769Z" fill="black"/>
<path fill-rule="evenodd" clip-rule="evenodd" d="M25.9846 37.9154C26.0611 37.9154 26.1231 37.8534 26.1231 37.7769C26.1231 37.7004 26.0611 37.6385 25.9846 37.6385C25.9081 37.6385 25.8462 37.7004 25.8462 37.7769C25.8462 37.8534 25.9081 37.9154 25.9846 37.9154ZM23.2615 37.7769C23.2615 36.273 24.4807 35.0538 25.9846 35.0538C27.4885 35.0538 28.7077 36.273 28.7077 37.7769C28.7077 39.2808 27.4885 40.5 25.9846 40.5C24.4807 40.5 23.2615 39.2808 23.2615 37.7769Z" fill="black"/>
<path fill-rule="evenodd" clip-rule="evenodd" d="M30.0946 24.8075L29.1993 29.5028L29.1972 29.5135C29.0136 30.4379 28.5108 31.2681 27.7767 31.8591C27.0465 32.4468 26.1339 32.7606 25.197 32.7462H12.6602C11.7233 32.7606 10.8107 32.4468 10.0805 31.8591C9.34677 31.2684 8.84404 30.4386 8.66025 29.5148L6.50212 18.7322C6.49287 18.6942 6.48514 18.6557 6.47898 18.6166L5.42719 13.3615H1.43073C0.640544 13.3615 -3.05176e-05 12.7209 -3.05176e-05 11.9308C-3.05176e-05 11.1406 0.640544 10.5 1.43073 10.5H6.59997C7.2819 10.5 7.86907 10.9813 8.0029 11.65L9.06602 16.9615H19.1775C19.5171 17.9874 19.9978 18.9489 20.5968 19.8231H9.63874L11.4663 28.9539L11.4667 28.956C11.5195 29.2216 11.664 29.4603 11.8749 29.6301C12.0858 29.7999 12.3498 29.89 12.6206 29.8849L12.648 29.8847H25.2093L25.2366 29.8849C25.5073 29.89 25.7713 29.7999 25.9822 29.6301C26.1921 29.4612 26.3362 29.2242 26.3896 28.9602L26.3905 28.956L27.2473 24.463C28.143 24.6881 29.0805 24.8076 30.046 24.8076C30.0622 24.8076 30.0784 24.8076 30.0946 24.8075Z" fill="black"/>
</g>
<path d="M29.5 2C35.5751 2 40.5 6.92487 40.5 13C40.5 19.0751 35.5751 24 29.5 24C23.4248 24 18.5 19.0751 18.5 13C18.5 6.92487 23.4248 2 29.5 2Z" stroke="black" stroke-width="3"/>
<path d="M29.5637 19.5V8.907L27.1337 10.392V7.998L29.5637 6.54H31.7777V19.5H29.5637Z" fill="black"/>
<defs>
<clipPath id="clip0_488_13649">
<rect width="30" height="30" fill="white" transform="translate(-3.05176e-05 10.5)"/>
</clipPath>
</defs>
</svg>
