<svg width="167" height="72" viewBox="0 0 167 72" fill="none" xmlns="http://www.w3.org/2000/svg">
<g clip-path="url(#clip0_526_12574)">
<path d="M67.6235 15.019V2.78735H69.0953V13.5849H74.6146V15.019H67.6498H67.6235Z" fill="white"/>
<path d="M80.3704 15.2626C79.5294 15.2626 78.7672 15.1273 78.0839 14.8297C77.4006 14.532 76.8486 14.1261 76.4281 13.5578C75.9813 13.0166 75.7185 12.3671 75.5871 11.6094L77.1114 11.3658C77.2954 12.1506 77.7159 12.7459 78.3204 13.1789C78.9249 13.6119 79.6345 13.8284 80.4756 13.8284C81.0012 13.8284 81.5005 13.7472 81.9211 13.5578C82.3679 13.3954 82.6832 13.1248 82.9461 12.8272C83.2088 12.5024 83.314 12.1235 83.314 11.6906C83.314 11.42 83.2615 11.1764 83.1826 10.987C83.1037 10.7975 82.9723 10.6352 82.8147 10.4728C82.6569 10.3375 82.473 10.2293 82.289 10.121C82.0787 10.0128 81.8948 9.95864 81.6582 9.87745L78.6358 8.95736C78.3204 8.84912 77.9788 8.74087 77.6896 8.5785C77.4006 8.41614 77.1114 8.22671 76.8749 7.98315C76.6384 7.7396 76.4281 7.46898 76.2967 7.14425C76.1653 6.81951 76.0865 6.4136 76.0865 5.98062C76.0865 5.24996 76.2704 4.62755 76.6384 4.11338C77.0063 3.59921 77.5057 3.22035 78.1364 2.94974C78.7672 2.67912 79.4768 2.54382 80.2652 2.54382C81.0537 2.54382 81.7897 2.70619 82.3941 2.9768C82.9986 3.24742 83.5505 3.6804 83.971 4.19456C84.3916 4.7358 84.6543 5.3582 84.8121 6.11592L83.2615 6.38653C83.1825 5.89943 82.9986 5.46645 82.7095 5.08759C82.4204 4.7358 82.0787 4.43812 81.6582 4.24868C81.2377 4.05926 80.7646 3.95101 80.2652 3.95101C79.7922 3.95101 79.3455 4.03219 78.9512 4.19456C78.557 4.35693 78.2415 4.60048 78.0313 4.8711C77.821 5.14171 77.6896 5.49351 77.6896 5.87237C77.6896 6.25123 77.7947 6.5489 78.005 6.76539C78.2153 6.98188 78.4781 7.17132 78.7672 7.30662C79.0826 7.44193 79.3717 7.55017 79.6608 7.63135L81.9211 8.30789C82.1838 8.38907 82.473 8.49732 82.8147 8.60557C83.1563 8.71382 83.4717 8.93031 83.8134 9.1468C84.155 9.36329 84.3916 9.68802 84.6018 10.0939C84.8121 10.4728 84.9172 10.9599 84.9172 11.5552C84.9172 12.1506 84.8121 12.6648 84.5755 13.1248C84.339 13.5849 84.0236 13.9637 83.6294 14.2884C83.2351 14.5861 82.7621 14.8297 82.2101 14.9921C81.6582 15.1544 81.1063 15.2356 80.4756 15.2356L80.3704 15.2626Z" fill="white"/>
<path d="M85.4689 15.019L89.5426 8.82204L85.574 2.78735H87.3613L90.4362 7.55016L93.5113 2.78735H95.2984L91.3298 8.82204L95.4035 15.019H93.6164L90.4362 10.121L87.2561 15.019H85.4689Z" fill="white"/>
<path d="M67.4269 44.5972V21.2161H74.6545C74.8385 21.2161 75.2064 21.2161 75.7846 21.2161C76.3628 21.2161 76.8884 21.2702 77.4141 21.3243C79.2013 21.5679 80.7256 22.2174 81.9872 23.2998C83.2224 24.3823 84.1686 25.7624 84.8256 27.4131C85.4564 29.091 85.798 30.9041 85.798 32.8796C85.798 34.8551 85.4827 36.6952 84.8256 38.3459C84.1948 40.0238 83.2487 41.3768 81.9872 42.4592C80.7519 43.5417 79.2276 44.1912 77.4141 44.4347C76.8884 44.4889 76.3628 44.543 75.7846 44.543C75.2064 44.543 74.8385 44.543 74.6545 44.543H67.4269V44.5972ZM71.2904 40.9168H74.6545C74.9698 40.9168 75.3641 40.9168 75.8634 40.8897C76.3628 40.8626 76.7833 40.8086 77.1776 40.7544C78.2551 40.5379 79.1224 40.0508 79.8057 39.266C80.4891 38.4812 80.9622 37.5341 81.3038 36.4246C81.6455 35.315 81.7769 34.1514 81.7769 32.9067C81.7769 31.6618 81.6192 30.444 81.2775 29.3345C80.9622 28.225 80.4629 27.2778 79.7795 26.5201C79.0962 25.7624 78.2288 25.2753 77.1776 25.0859C76.8096 25.0047 76.3628 24.9506 75.8634 24.9235C75.3641 24.8964 74.9698 24.9235 74.6545 24.9235H71.2904V40.9438V40.9168Z" fill="white"/>
<path d="M96.1795 45.0842C94.4449 45.0842 92.9468 44.7054 91.6328 43.9206C90.3186 43.1358 89.3199 42.0804 88.5841 40.7273C87.8481 39.3742 87.4802 37.8046 87.4802 36.0186C87.4802 34.0973 87.8481 32.4466 88.5578 31.0123C89.2674 29.6051 90.2661 28.4955 91.5277 27.7378C92.7891 26.953 94.2609 26.5742 95.9429 26.5742C97.7039 26.5742 99.2019 27.0072 100.437 27.8461C101.673 28.685 102.592 29.9027 103.197 31.4453C103.801 32.9878 104.011 34.8279 103.88 36.9117H100.122V35.4774C100.122 33.5831 99.78 32.1759 99.1494 31.3099C98.5186 30.444 97.4937 29.9839 96.127 29.9839C94.5764 29.9839 93.4199 30.471 92.6578 31.4723C91.8955 32.4735 91.5277 33.9078 91.5277 35.8292C91.5277 37.6152 91.8955 38.9684 92.6578 39.9426C93.4199 40.9168 94.5238 41.4038 95.9693 41.4038C96.9155 41.4038 97.7039 41.1873 98.3872 40.7544C99.0706 40.3214 99.5966 39.699 99.9645 38.8871L103.723 40.0508C103.065 41.6203 102.067 42.8652 100.7 43.7311C99.3338 44.5971 97.8353 45.0571 96.2058 45.0571L96.1795 45.0842ZM90.3186 36.9117V33.962H102.041V36.9117H90.3186Z" fill="white"/>
<path d="M113.052 45.0842C110.95 45.0842 109.242 44.5971 107.928 43.6229C106.613 42.6487 105.825 41.2685 105.536 39.5096L109.425 38.8871C109.635 39.7531 110.057 40.4296 110.74 40.9438C111.423 41.4309 112.29 41.7015 113.315 41.7015C114.235 41.7015 114.945 41.5121 115.444 41.1333C115.944 40.7544 116.206 40.2402 116.206 39.5907C116.206 39.1848 116.101 38.8601 115.917 38.6165C115.733 38.373 115.339 38.1294 114.708 37.9129C114.077 37.6964 113.132 37.3987 111.843 37.0469C110.425 36.6681 109.267 36.2351 108.427 35.8022C107.586 35.3692 106.981 34.8279 106.613 34.2056C106.245 33.5831 106.062 32.8524 106.062 31.9594C106.062 30.8769 106.35 29.9027 106.902 29.0909C107.455 28.2791 108.243 27.6567 109.242 27.2237C110.24 26.7907 111.423 26.5742 112.764 26.5742C114.103 26.5742 115.26 26.7907 116.285 27.1966C117.31 27.6296 118.151 28.225 118.756 29.0097C119.386 29.7945 119.781 30.7146 119.912 31.7429L116.022 32.4466C115.917 31.6888 115.602 31.1205 115.023 30.6875C114.471 30.2546 113.71 30.011 112.764 29.9569C111.869 29.9027 111.16 30.0381 110.608 30.3628C110.057 30.6875 109.793 31.1476 109.793 31.7429C109.793 32.0676 109.899 32.3653 110.135 32.6089C110.372 32.8524 110.792 33.096 111.476 33.3125C112.159 33.529 113.132 33.8537 114.471 34.1785C115.839 34.5303 116.915 34.9362 117.73 35.3963C118.546 35.8562 119.124 36.3975 119.491 37.0469C119.859 37.6964 120.044 38.4541 120.044 39.3742C120.044 41.1333 119.412 42.5134 118.178 43.5416C116.942 44.57 115.208 45.0571 113.026 45.0571L113.052 45.0842Z" fill="white"/>
<path d="M122.987 24.3823V20.7831H126.798V24.3823H122.987ZM122.987 44.5701V27.0343H126.798V44.5701H122.987Z" fill="white"/>
<path d="M137.389 45.0842C135.813 45.0842 134.445 44.6783 133.289 43.8664C132.133 43.0546 131.213 41.9451 130.582 40.5649C129.952 39.1848 129.609 37.5882 129.609 35.8292C129.609 34.0702 129.925 32.4735 130.582 31.0934C131.24 29.7133 132.133 28.6038 133.342 27.792C134.551 26.9801 135.918 26.5742 137.547 26.5742C139.176 26.5742 140.517 26.9801 141.62 27.792C142.725 28.6038 143.539 29.7133 144.117 31.0934C144.695 32.5006 144.959 34.0702 144.959 35.8292C144.959 37.5882 144.669 39.1307 144.117 40.5379C143.539 41.9451 142.698 43.0546 141.568 43.8664C140.438 44.6783 139.045 45.0842 137.389 45.0842ZM137.731 52.8778C136.785 52.8778 135.865 52.7155 134.998 52.4179C134.13 52.1201 133.342 51.6871 132.659 51.1188C131.975 50.5506 131.397 49.874 130.95 49.0622L134.445 47.2762C134.761 47.9256 135.235 48.3857 135.839 48.6833C136.443 48.981 137.074 49.1434 137.731 49.1434C138.52 49.1434 139.229 49.0081 139.834 48.7104C140.464 48.4127 140.937 48.0068 141.279 47.4385C141.62 46.8703 141.778 46.1937 141.752 45.3548V40.3755H142.225V27.0343H145.563V45.4089C145.563 45.8419 145.563 46.2749 145.51 46.6808C145.485 47.0868 145.405 47.4927 145.327 47.8715C145.064 49.0081 144.59 49.9281 143.881 50.6858C143.171 51.4166 142.278 51.9578 141.227 52.3095C140.176 52.6613 138.993 52.8508 137.731 52.8508V52.8778ZM137.994 41.5662C139.019 41.5662 139.834 41.3227 140.464 40.8355C141.095 40.3485 141.542 39.6719 141.831 38.8059C142.12 37.94 142.278 36.9387 142.278 35.8022C142.278 34.6655 142.12 33.6642 141.831 32.7983C141.542 31.9323 141.095 31.2559 140.491 30.7958C139.886 30.3086 139.098 30.0652 138.125 30.0652C137.1 30.0652 136.259 30.3086 135.603 30.8499C134.945 31.3641 134.445 32.0676 134.13 32.9336C133.815 33.7996 133.657 34.7738 133.657 35.8292C133.657 36.8846 133.815 37.8588 134.13 38.7519C134.445 39.6448 134.919 40.3214 135.55 40.8085C136.181 41.3227 136.995 41.5662 137.994 41.5662Z" fill="white"/>
<path d="M149.058 44.5972V27.0614H152.448V32.5007H152.896V44.5972H149.058ZM160.859 44.5972V36.154C160.859 35.6128 160.833 34.9904 160.754 34.3138C160.675 33.6374 160.518 32.9879 160.228 32.3654C159.966 31.743 159.571 31.2289 159.02 30.823C158.494 30.417 157.784 30.2276 156.864 30.2276C156.391 30.2276 155.892 30.3087 155.418 30.4712C154.945 30.6335 154.525 30.9041 154.131 31.31C153.736 31.7159 153.448 32.2572 153.211 32.9337C152.974 33.6103 152.869 34.5033 152.869 35.5858L150.609 34.5845C150.609 33.0961 150.899 31.743 151.45 30.5252C152.002 29.3075 152.843 28.3603 153.947 27.6297C155.05 26.8991 156.391 26.5472 157.994 26.5472C159.256 26.5472 160.307 26.7637 161.122 27.1967C161.937 27.6297 162.593 28.1709 163.067 28.8475C163.54 29.524 163.908 30.2276 164.144 30.9853C164.381 31.743 164.512 32.4467 164.591 33.1231C164.67 33.7997 164.696 34.3409 164.696 34.7739V44.5701H160.859V44.5972Z" fill="white"/>
<path fill-rule="evenodd" clip-rule="evenodd" d="M24.3371 44.6783H0L43.2076 0L24.3371 44.6783Z" fill="#FF3131"/>
<path fill-rule="evenodd" clip-rule="evenodd" d="M31.8272 26.8719H56.1644L12.9568 71.5503L31.8272 26.8719Z" fill="#CC3F23"/>
</g>
<defs>
<clipPath id="clip0_526_12574">
<rect width="166.584" height="71.5503" fill="white"/>
</clipPath>
</defs>
</svg>
