<svg width="29" height="29" viewBox="0 0 29 29" fill="none" xmlns="http://www.w3.org/2000/svg">
<g clip-path="url(#clip0_526_12591)">
<path d="M14.5001 15.1305C18.6861 15.1305 22.0797 11.7434 22.0797 7.56525C22.0797 3.38713 18.6861 0 14.5001 0C10.3141 0 6.92053 3.38713 6.92053 7.56525C6.92053 11.7434 10.3141 15.1305 14.5001 15.1305ZM0.604431 28.3696C0.604431 28.718 0.887029 29 1.23597 29H27.7646C28.1135 29 28.396 28.718 28.396 28.3696V27.1087C28.396 22.0088 24.98 17.6521 18.2903 17.6521H10.7106C4.0206 17.6521 0.604701 22.0088 0.604701 27.1087L0.604431 28.3696Z" fill="white"/>
</g>
<defs>
<clipPath id="clip0_526_12591">
<rect width="29" height="29" fill="white"/>
</clipPath>
</defs>
</svg>
