<svg width="24" height="24" viewBox="0 0 24 24" fill="none" xmlns="http://www.w3.org/2000/svg">
<path d="M22.23 5.924C21.494 6.25 20.703 6.471 19.873 6.57C20.72 6.062 21.371 5.258 21.677 4.3C20.884 4.77 20.006 5.112 19.071 5.296C18.324 4.498 17.257 4 16.077 4C13.811 4 11.974 5.837 11.974 8.103C11.974 8.425 12.01 8.738 12.08 9.038C8.66998 8.867 5.64698 7.234 3.62298 4.751C3.26998 5.357 3.06698 6.062 3.06698 6.814C3.06698 8.238 3.79098 9.493 4.89198 10.229C4.21898 10.208 3.58698 10.023 3.03298 9.716C3.03298 9.733 3.03298 9.75 3.03298 9.768C3.03298 11.756 4.44698 13.415 6.32498 13.791C5.98098 13.885 5.61798 13.935 5.24398 13.935C4.97998 13.935 4.72298 13.909 4.47198 13.861C4.99398 15.491 6.50998 16.677 8.30498 16.711C6.90098 17.811 5.13098 18.467 3.20898 18.467C2.87798 18.467 2.55098 18.448 2.22998 18.41C4.04598 19.574 6.20298 20.253 8.51998 20.253C16.067 20.253 20.195 14.001 20.195 8.578C20.195 8.4 20.191 8.223 20.183 8.047C20.985 7.47 21.68 6.747 22.23 5.924Z" fill="black"/>
</svg>
